<mxfile host="Electron" agent="Mozilla/5.0 (Macintosh; Intel Mac OS X 10_15_7) AppleWebKit/537.36 (KHTML, like Gecko) draw.io/26.0.9 Chrome/128.0.6613.186 Electron/32.2.5 Safari/537.36" version="26.0.9">
  <diagram name="Page-1" id="IQtUckBAeXYavFL6zw9H">
    <mxGraphModel dx="1560" dy="924" grid="1" gridSize="10" guides="1" tooltips="1" connect="1" arrows="1" fold="1" page="1" pageScale="1" pageWidth="1169" pageHeight="827" math="0" shadow="0">
      <root>
        <mxCell id="0" />
        <mxCell id="1" parent="0" />
        <mxCell id="FtllF8iQNaE-0gJXWhkM-1" value="创业MVP生成行动矩阵（总耗时58分钟）" style="rounded=1;whiteSpace=wrap;html=1;fillColor=#e0f7fa;" vertex="1" parent="1">
          <mxGeometry x="100" y="20" width="400" height="40" as="geometry" />
        </mxCell>
        <mxCell id="FtllF8iQNaE-0gJXWhkM-2" value="| 步骤 | 名称 | 目标 | 任务 | 关键点/资源 | 优先级 | 时间分配 | 产出物/输出 | 备注/完善建议 |" style="align=center;verticalAlign=middle;fillColor=#f0f0f0;strokeColor=#000000;strokeWidth=1;whiteSpace=wrap;html=1;" vertex="1" parent="1">
          <mxGeometry x="100" y="80" width="800" height="30" as="geometry" />
        </mxCell>
      </root>
    </mxGraphModel>
  </diagram>
</mxfile>
